<svg id="Layer_1" data-name="Layer 1" xmlns="http://www.w3.org/2000/svg" viewBox="0 0 276.67 306.43"><defs><style>.cls-1,.cls-2,.cls-4,.cls-6{fill:#005daa;}.cls-1,.cls-2,.cls-3{fill-rule:evenodd;}.cls-2{stroke:#fff;stroke-miterlimit:3.86;stroke-width:2.3px;}.cls-3{fill:#fff;}.cls-4{font-size:36px;}.cls-4,.cls-6{font-family:Kabel Ult BT;}.cls-5{letter-spacing:-1px;}.cls-6{font-size:23px;}.cls-7{letter-spacing:2px;}.cls-8{fill:none;}</style></defs><title>Theatre Film UAF 2016</title><path class="cls-1" d="M164.75,334.44s7.56-10.75,17.38-12.75c-5.5-4.37-11.31-5.25-15.69-3.31-4.06,6.06-3.06,14.94-1.69,15.81" transform="translate(-117.48 -287.57)"/><path class="cls-1" d="M170.11,312.08a26.09,26.09,0,1,0,26.09,26.09,26.12,26.12,0,0,0-26.09-26.09h0ZM127.61,501V442l0.84-.21c0.42-.12,4.71-1.66,35.2-13.46l0.92-.36c4.34-1.77,8.43-3.24,12-4.55,12.15-4.39,19.48-7,19.48-13.87,0-6.35-4.25-10.61-8.22-10.61h-2.93c-1.8.23-26.05,9.41-32.89,12.18-10.24,4.15-17.73,6.89-23.19,8.9a104.72,104.72,0,0,0-9.76,3.85l-1.62.84V291.46H222.84V426l-0.7.28c-3.42,1.36-9.46,3.67-15.85,6.11-8.68,3.32-18.53,7.08-24.12,9.35l-25.6,9.87c-6.33,2.32-9.15,5.37-9.15,9.89,0,7,6.27,10.27,8.26,10.35,0.4,0,.75,0,1.06,0a7.7,7.7,0,0,0,2.08-.22,3.53,3.53,0,0,1,.89-0.13,3.73,3.73,0,0,1,1.24.25l52.29-20.42V501H127.61Z" transform="translate(-117.48 -287.57)"/><path class="cls-1" d="M164.63,341.07s-5.31-12-2-21.46c-6.58,2.45-10.33,7-10.93,11.73,3.1,6.61,11.22,10.33,12.67,9.6" transform="translate(-117.48 -287.57)"/><path class="cls-1" d="M170.91,345s-13.09-1.23-19.69-8.76c-1.07,6.95,1.06,12.43,4.91,15.26,7.28,0.52,14.49-4.75,14.57-6.38" transform="translate(-117.48 -287.57)"/><path class="cls-1" d="M176.66,341.78s-8.09,10.36-18,11.86c5.27,4.65,11,5.81,15.5,4.09,4.36-5.85,3.81-14.77,2.48-15.71" transform="translate(-117.48 -287.57)"/><path class="cls-1" d="M177.12,335.16s4.7,12.28.88,21.53c6.7-2.12,10.67-6.46,11.5-11.17-2.76-6.75-10.69-10.88-12.18-10.23" transform="translate(-117.48 -287.57)"/><path class="cls-1" d="M171,330.88s13,1.88,19.23,9.73c1.41-6.88-.43-12.46-4.14-15.49-7.25-.88-14.71,4-14.87,5.64" transform="translate(-117.48 -287.57)"/><path class="cls-1" d="M256.41,447.46v7.21a3.55,3.55,0,0,1-7.09-.29v-6.68l1.91-.25v6.64c0,0.89.16,2,1.65,2s1.61-.92,1.61-2.1v-6.25l1.92-.25h0Z" transform="translate(-117.48 -287.57)"/><polygon class="cls-1" points="144.82 170.34 144.82 159.89 144.88 159.89 150.82 165.94 150.82 160.14 152.76 159.89 152.76 170.34 152.7 170.34 146.76 164.38 146.76 170.1 144.82 170.34 144.82 170.34"/><polygon class="cls-1" points="158.75 170.21 158.75 160.14 160.67 159.89 160.67 170.1 158.75 170.21 158.75 170.21"/><polygon class="cls-1" points="169.68 166.16 172.12 159.89 174.06 160.14 169.7 170.34 169.67 170.34 165.42 160.14 167.47 159.89 169.68 166.16 169.68 166.16"/><polygon class="cls-1" points="178.77 170.1 178.77 160.14 184.13 160.14 184.46 161.98 180.68 161.98 180.68 163.97 183.7 163.97 183.7 165.82 180.68 165.82 180.68 168.26 184.91 168.26 184.31 170.1 178.77 170.1 178.77 170.1"/><path class="cls-1" d="M309.5,452.23h0.7c1,0,1.87-.28,1.87-1.41s-0.87-1.27-1.81-1.27H309.5v2.69h0Zm-1.91-4.52h3.19c1.93,0,3.43.91,3.43,3.06a2.69,2.69,0,0,1-1.91,2.63l2.72,4-2.1.52-3.37-5.23h0v5l-1.91.11V447.71h0Z" transform="translate(-117.48 -287.57)"/><path class="cls-1" d="M320.47,455a2.27,2.27,0,0,0,1.92,1.07,1.26,1.26,0,0,0,1.29-1.14c0-2-4.36-.87-4.36-4.39,0-1.91,1.43-3.06,3.39-3.06a3.83,3.83,0,0,1,2.8,1.35l-1.19,1.41a2.62,2.62,0,0,0-1.72-.9,1.12,1.12,0,0,0-1.27,1.2c0,1.71,4.35.48,4.35,4.41a3.1,3.1,0,0,1-3.4,3,3.89,3.89,0,0,1-3.13-1.55l1.31-1.37h0Z" transform="translate(-117.48 -287.57)"/><polygon class="cls-1" points="213.71 170.21 213.71 160.14 215.63 159.89 215.63 170.1 213.71 170.21 213.71 170.21"/><polygon class="cls-1" points="220.97 160.14 227.63 160.14 227.63 161.98 225.14 161.98 225.14 170.1 223.22 170.21 223.22 161.98 220.51 161.98 220.97 160.14 220.97 160.14"/><polygon class="cls-1" points="231.9 160.42 233.77 159.89 236.08 164.49 238.03 159.89 239.93 160.42 235.48 170.34 233.51 169.94 235.12 166.53 231.9 160.42 231.9 160.42"/><path class="cls-1" d="M374.73,455.95a3.25,3.25,0,1,0-3.27-3.27,3.29,3.29,0,0,0,3.27,3.27h0Zm0-8.48a5.22,5.22,0,1,1-5.27,5.22,5.25,5.25,0,0,1,5.27-5.22h0Z" transform="translate(-117.48 -287.57)"/><polygon class="cls-1" points="267.92 160.14 273.06 160.14 273.47 161.98 269.85 161.98 269.85 164.27 272.53 164.27 272.53 166.1 269.85 166.1 269.85 170.1 267.92 170.34 267.92 160.14 267.92 160.14"/><path class="cls-1" d="M257.38,474.67h5l-2.57-6-2.41,6h0Zm-8.76,8.68,11.16-22.51h0.06l11.56,22.51-4.56.69-2.65-5.62H255.7L253.12,484l-4.5-.69h0Z" transform="translate(-117.48 -287.57)"/><polygon class="cls-1" points="160.38 195.96 160.38 173.78 164.63 173.27 164.63 191.84 172.71 191.84 171.65 195.96 160.38 195.96 160.38 195.96"/><path class="cls-1" d="M303.84,474.67h5l-2.55-6-2.42,6h0Zm-8.75,8.68,11.14-22.51h0.07l11.57,22.51-4.57.69-2.65-5.62h-8.49L299.57,484l-4.48-.69h0Z" transform="translate(-117.48 -287.57)"/><path class="cls-1" d="M326,477.54c1.1,1.23,1.87,2.39,4.27,2.39a2.77,2.77,0,0,0,2.84-2.54c0-4.4-9.65-1.91-9.65-9.76,0-4.23,3.17-6.79,7.56-6.79a8.34,8.34,0,0,1,6.2,3l-2.65,3.1a6.07,6.07,0,0,0-3.8-2c-1.49,0-2.84.64-2.84,2.68,0,3.77,9.65,1.06,9.65,9.78,0,4.05-3.36,6.64-7.52,6.64a8.66,8.66,0,0,1-7-3.47l2.93-3h0Z" transform="translate(-117.48 -287.57)"/><polygon class="cls-1" points="240.29 173.27 244.39 174.95 237.22 184.16 244.65 194.88 240.26 196.47 232.5 184.51 232.44 184.51 232.44 195.96 228.17 196.22 228.17 173.78 232.44 173.27 232.44 183.54 232.5 183.54 240.29 173.27 240.29 173.27"/><path class="cls-1" d="M375.84,474.67h5l-2.54-6-2.43,6h0Zm-8.75,8.68,11.14-22.51h0.06l11.57,22.51-4.54.69-2.65-5.62h-8.51L371.58,484l-4.49-.69h0Z" transform="translate(-117.48 -287.57)"/><polygon class="cls-1" points="131.46 201.84 137.16 201.84 137.63 203.88 133.59 203.88 133.59 206.42 136.58 206.42 136.58 208.47 133.59 208.47 133.59 212.91 131.46 213.17 131.46 201.84 131.46 201.84"/><path class="cls-1" d="M266.38,496.06h2.5l-1.29-3-1.21,3h0ZM262,500.4l5.58-11.24h0l5.8,11.24-2.29.35-1.33-2.8h-4.25l-1.29,2.8L262,500.4h0Z" transform="translate(-117.48 -287.57)"/><polygon class="cls-1" points="164.83 213.04 164.83 201.84 166.96 201.58 166.96 212.91 164.83 213.04 164.83 213.04"/><path class="cls-1" d="M296.9,494.43h0.78c1,0,2.07-.31,2.07-1.55s-1-1.42-2-1.42H296.9v3h0Zm-2.13-5h3.56c2.13,0,3.81,1,3.81,3.4a3,3,0,0,1-2.13,2.91l3,4.46-2.33.56-3.77-5.8h0v5.54l-2.13.13v-11.2h0Z" transform="translate(-117.48 -287.57)"/><path class="cls-1" d="M314.13,498.44h1.1c1.46,0,2-.44,2-1.4s-0.52-1.38-2-1.38h-1.1v2.78h0Zm0-4.5h1.16a1.28,1.28,0,0,0,1.42-1.23,1.3,1.3,0,0,0-1.42-1.25h-1.16v2.48h0ZM312,489.41h3.81a3,3,0,0,1,3.23,3,2.44,2.44,0,0,1-1.48,2.26,2.84,2.84,0,0,1,2,2.71,3.14,3.14,0,0,1-3.43,3.06H312V489.41h0Z" transform="translate(-117.48 -287.57)"/><path class="cls-1" d="M332,496.06h2.5l-1.29-3-1.21,3h0Zm-4.37,4.34,5.58-11.24h0L339,500.4l-2.27.35-1.34-2.8h-4.24l-1.29,2.8-2.24-.35h0Z" transform="translate(-117.48 -287.57)"/><polygon class="cls-1" points="230.32 213.17 230.32 201.58 230.37 201.58 237 208.28 237 201.84 239.13 201.58 239.13 213.17 239.07 213.17 232.46 206.55 232.46 212.91 230.32 213.17 230.32 213.17"/><polygon class="cls-1" points="255.42 201.58 257.46 202.42 253.89 207.01 257.59 212.37 255.4 213.17 251.52 207.2 251.5 207.2 251.5 212.91 249.37 213.04 249.37 201.84 251.5 201.58 251.5 206.71 251.52 206.71 255.42 201.58 255.42 201.58"/><path class="cls-1" d="M384.82,497.49a2.48,2.48,0,0,0,2.13,1.21,1.38,1.38,0,0,0,1.42-1.28c0-2.2-4.83-1-4.83-4.89,0-2.11,1.6-3.38,3.79-3.38a4.17,4.17,0,0,1,3.1,1.49l-1.33,1.55a3.09,3.09,0,0,0-1.9-1,1.24,1.24,0,0,0-1.42,1.33c0,1.9,4.83.54,4.83,4.89,0,2-1.68,3.32-3.77,3.32a4.39,4.39,0,0,1-3.49-1.72l1.47-1.53h0Z" transform="translate(-117.48 -287.57)"/><polygon class="cls-2" points="249.9 152.91 237.52 152.91 225.7 114.76 225.7 81.04 275.52 81.04 275.52 96.98 250.07 96.98 250.07 103.27 269.57 103.27 269.57 119.36 249.9 119.36 249.9 152.91 249.9 152.91"/><path class="cls-2" d="M269,368.54V416s-0.23,3.16,2.41,3.16c2.94,0,2.68-3.15,2.68-3.15l0-47.48h22.27v32.25l-13.43,39.63h1.78a70.28,70.28,0,0,1-11.73.85c-25.21,0-26.53-8.21-26.53-8.21V368.54H269Z" transform="translate(-117.48 -287.57)"/><polygon class="cls-2" points="165.53 152.91 237.29 152.91 214.92 81.05 189.75 81.05 165.53 152.91 165.53 152.91"/><path class="cls-3" d="M326.68,434.33l1.63-3.14-0.7-3.41-4.06-1.69a47.72,47.72,0,0,1-2.22,7.3l-2.14.22a35.68,35.68,0,0,0,3.06-16.55l1.87,0.3a33.48,33.48,0,0,1-.25,6.86l5.35,2.24,1.85,9.32-4.4-1.44h0Zm13.38,2.06h10.69l-0.63-2h-9.69c0.17-1,.36-2.13.53-3.36h8.1l-0.64-2h-7.19c0.13-1.09.25-2.22,0.34-3.35h5.81l-0.65-2h-5c0.19-4.07-.09-8-1.41-10.05-4.54-7.18-14.6-9.62-19.69-11.28l-0.6,2.1-1.86-.71,0.58-2.07c0.81-2.38.31-4.19,5.45-3.74,0.44-.43,1.69-2.89,1.41-3.42a30,30,0,0,0-4.89-1.53,4.68,4.68,0,0,0-1.66-1.41,8.45,8.45,0,0,0-6.52-.09,2.31,2.31,0,0,0-2-.14,1.5,1.5,0,0,0-1,1.66,3,3,0,0,0-.51.53,17.67,17.67,0,0,0-3.36,5.3,46.21,46.21,0,0,0-2.67,6.74c-1.4,5.42-1.43,9.74,0,14.34a25.22,25.22,0,0,1,.77,3.83H291.35l-0.71,2h13.5a10.91,10.91,0,0,0,1.33,3.36h-16l-0.69,2H307c0.69,0.8,1.5,1.71,2.17,2.45a6.24,6.24,0,0,0,3.31-4l-1.08-8.11-1.21-.79,1.5-1.65,1.46,1.19,1.24,9.52a9,9,0,0,1-2.66,4.58h-24l-0.71,2h20.24l-10.87,4.11H345l-5.34-2.21s0.14-.66.36-1.77h0Z" transform="translate(-117.48 -287.57)"/><polygon class="cls-1" points="255.82 148.14 256.94 148.14 256.94 151.56 257.75 151.51 257.75 148.14 258.79 148.14 258.79 147.36 256.02 147.36 255.82 148.14 255.82 148.14"/><polygon class="cls-1" points="259.67 151.62 259.98 149.49 260 149.49 261.03 151.62 261.05 151.62 262.06 149.49 262.08 149.49 262.41 151.62 263.2 151.51 262.41 147.26 262.39 147.26 261.04 150.05 259.69 147.26 259.68 147.26 258.9 151.51 259.67 151.62 259.67 151.62"/><text class="cls-4" transform="translate(130.37 30.6)">THE<tspan class="cls-5" x="60.48" y="0">A</tspan><tspan x="84.62" y="0">TRE</tspan><tspan x="13.53" y="41">&amp; FILM</tspan></text><text class="cls-6" transform="translate(1.63 240.15)">ww<tspan x="34.13" y="0">w</tspan><tspan x="50.37" y="0">.ua</tspan><tspan x="83.52" y="0">f</tspan><tspan x="91.21" y="0">.edu/Theatr</tspan><tspan class="cls-7" x="213.21" y="0">e</tspan><tspan x="227.95" y="0">Film</tspan></text><rect id="_Slice_" data-name="&lt;Slice&gt;" class="cls-8" x="129.52" y="4.43" width="144" height="69"/></svg>